<svg width="1146" height="1080" viewBox="0 0 1146 1080" fill="none" xmlns="http://www.w3.org/2000/svg">
<line x1="290" y1="1079.27" x2="290" y2="-1" stroke="#FF5E14" stroke-width="14"/>
<line x1="370" y1="1079.4" x2="370" y2="-0.866699" stroke="#FF5E14" stroke-width="14"/>
<line x1="450" y1="1079.53" x2="450" y2="-0.733398" stroke="#FF5E14" stroke-width="14"/>
<line x1="530" y1="1079.67" x2="530" y2="-0.600098" stroke="#FF5E14" stroke-width="14"/>
<line x1="610" y1="1079.8" x2="610" y2="-0.466797" stroke="#FF5E14" stroke-width="14"/>
<line x1="690" y1="1079.93" x2="690" y2="-0.333496" stroke="#FF5E14" stroke-width="14"/>
<line x1="770" y1="1080.07" x2="770" y2="-0.200195" stroke="#FF5E14" stroke-width="14"/>
<line x1="330" y1="1079.4" x2="330" y2="-0.866699" stroke="#FF5E14" stroke-width="14"/>
<line x1="410" y1="1079.53" x2="410" y2="-0.733398" stroke="#FF5E14" stroke-width="14"/>
<line x1="490" y1="1079.67" x2="490" y2="-0.600098" stroke="#FF5E14" stroke-width="14"/>
<line x1="570" y1="1079.8" x2="570" y2="-0.466797" stroke="#FF5E14" stroke-width="14"/>
<line x1="650" y1="1079.93" x2="650" y2="-0.333496" stroke="#FF5E14" stroke-width="14"/>
<line x1="730" y1="1080.07" x2="730" y2="-0.200195" stroke="#FF5E14" stroke-width="14"/>
<line x1="810" y1="1080.2" x2="810" y2="-0.0668945" stroke="#FF5E14" stroke-width="14"/>
<line y1="122" x2="1146" y2="122" stroke="#FF5E14" stroke-width="14"/>
<line y1="204" x2="1146" y2="204" stroke="#FF5E14" stroke-width="14"/>
<line y1="916" x2="1146" y2="916" stroke="#FF5E14" stroke-width="14"/>
<line y1="845" x2="1146" y2="845" stroke="#FF5E14" stroke-width="14"/>
</svg>
