<svg width="439" height="65" viewBox="0 0 439 65" fill="none" xmlns="http://www.w3.org/2000/svg">
<path d="M33.712 11.856V11.8H43.232V51H33.712V29.272L24.584 44.56H22.232L13.104 29.272V51H3.584V11.8H13.104V11.856L13.16 11.8L23.408 28.936L33.656 11.8L33.712 11.856ZM54.7645 20.088C53.1218 20.088 51.8152 19.64 50.8445 18.744C49.9112 17.8107 49.4445 16.5787 49.4445 15.048C49.4445 13.48 49.9112 12.248 50.8445 11.352C51.8152 10.4187 53.1218 9.952 54.7645 9.952C56.4072 9.952 57.6952 10.4187 58.6285 11.352C59.5992 12.248 60.0845 13.48 60.0845 15.048C60.0845 16.5787 59.5992 17.8107 58.6285 18.744C57.6952 19.64 56.4072 20.088 54.7645 20.088ZM50.2285 51V23H59.2445V51H50.2285ZM80.8251 22.216C82.4677 22.216 84.1104 22.5707 85.7531 23.28C87.4331 23.9893 88.8704 25.24 90.0651 27.032C91.2597 28.824 91.8571 31.232 91.8571 34.256V51H82.8411V34.256C82.8411 32.8 82.4117 31.736 81.5531 31.064C80.7317 30.392 79.7237 30.056 78.5291 30.056C77.3717 30.056 76.4197 30.4853 75.6731 31.344C74.9264 32.2027 74.5531 33.5093 74.5531 35.264V51H65.5371V23H74.5531V24.568C76.5691 23 78.6597 22.216 80.8251 22.216ZM117.538 11.8H126.61V51H117.538V49.432C115.112 51.0373 112.517 51.84 109.754 51.84C106.805 51.84 104.266 51.2053 102.138 49.936C100.048 48.6667 98.461 46.9307 97.3783 44.728C96.2956 42.488 95.7543 39.9307 95.7543 37.056C95.7543 34.1813 96.2956 31.624 97.3783 29.384C98.461 27.144 100.048 25.3893 102.138 24.12C104.266 22.8507 106.805 22.216 109.754 22.216C112.517 22.216 115.112 23.0187 117.538 24.624V11.8ZM110.986 43.216C112.853 43.216 114.402 42.6373 115.634 41.48C116.904 40.3227 117.538 38.8107 117.538 36.944C117.538 35.1147 116.922 33.6587 115.69 32.576C114.458 31.4933 112.89 30.952 110.986 30.952C109.157 30.952 107.664 31.512 106.506 32.632C105.349 33.7147 104.77 35.1893 104.77 37.056C104.77 38.9227 105.349 40.416 106.506 41.536C107.664 42.656 109.157 43.216 110.986 43.216ZM142.987 11.8V41.984H158.219V51H133.467V11.8H142.987ZM167.804 20.088C166.161 20.088 164.854 19.64 163.884 18.744C162.95 17.8107 162.484 16.5787 162.484 15.048C162.484 13.48 162.95 12.248 163.884 11.352C164.854 10.4187 166.161 9.952 167.804 9.952C169.446 9.952 170.734 10.4187 171.668 11.352C172.638 12.248 173.124 13.48 173.124 15.048C173.124 16.5787 172.638 17.8107 171.668 18.744C170.734 19.64 169.446 20.088 167.804 20.088ZM163.268 51V23H172.284V51H163.268ZM193.864 22.216C195.507 22.216 197.149 22.5707 198.792 23.28C200.472 23.9893 201.909 25.24 203.104 27.032C204.299 28.824 204.896 31.232 204.896 34.256V51H195.88V34.256C195.88 32.8 195.451 31.736 194.592 31.064C193.771 30.392 192.763 30.056 191.568 30.056C190.411 30.056 189.459 30.4853 188.712 31.344C187.965 32.2027 187.592 33.5093 187.592 35.264V51H178.576V23H187.592V24.568C189.608 23 191.699 22.216 193.864 22.216ZM223.241 22.216C225.929 22.216 228.356 22.8693 230.521 24.176C232.687 25.4827 234.367 27.256 235.561 29.496C236.793 31.736 237.409 34.2373 237.409 37C237.409 38.0453 237.316 39.0907 237.129 40.136H217.417C218.201 41.592 219.079 42.6187 220.049 43.216C221.057 43.8133 222.364 44.112 223.969 44.112C224.977 44.112 225.948 43.9253 226.881 43.552C227.852 43.1413 228.617 42.5813 229.177 41.872L236.009 45.904C234.665 47.808 232.948 49.264 230.857 50.272C228.804 51.28 226.452 51.784 223.801 51.784C220.703 51.784 217.996 51.1493 215.681 49.88C213.367 48.5733 211.575 46.8 210.305 44.56C209.036 42.32 208.401 39.8 208.401 37C208.401 34.2373 209.017 31.736 210.249 29.496C211.519 27.2187 213.273 25.4453 215.513 24.176C217.791 22.8693 220.367 22.216 223.241 22.216ZM228.953 33.248C228.692 32.2027 228.02 31.4 226.937 30.84C225.892 30.28 224.641 30 223.185 30C221.655 30 220.292 30.3173 219.097 30.952C217.94 31.5867 217.324 32.352 217.249 33.248H228.953Z" fill="#FF5E14"/>
<path d="M0 56.6H239.145V59.4H0V56.6Z" fill="#FF5E14"/>
<path d="M257.584 23.528C257.584 24.2533 257.755 24.7547 258.096 25.032C258.437 25.3093 258.981 25.448 259.728 25.448C260.176 25.448 260.667 25.416 261.2 25.352V29C260.197 29.1067 259.365 29.16 258.704 29.16C256.997 29.16 255.717 28.776 254.864 28.008C254.032 27.2187 253.616 25.8107 253.616 23.784V16.552H250.608V13H253.616V9.064L257.584 7.72V13H261.136V16.552H257.584V23.528ZM278.417 29H274.481V19.528C274.481 18.3333 274.139 17.48 273.457 16.968C272.795 16.4347 272.006 16.168 271.089 16.168C270.363 16.168 269.702 16.392 269.105 16.84C268.529 17.288 268.155 18.0027 267.985 18.984V29H264.017V6.6H267.985V14.344C268.518 13.832 269.126 13.4267 269.809 13.128C270.513 12.8293 271.259 12.68 272.049 12.68C272.987 12.68 273.937 12.8827 274.897 13.288C275.857 13.672 276.678 14.3653 277.361 15.368C278.065 16.3707 278.417 17.7253 278.417 19.432V29ZM289.162 29.448C287.647 29.448 286.239 29.0747 284.938 28.328C283.658 27.56 282.634 26.536 281.866 25.256C281.119 23.9547 280.746 22.5467 280.746 21.032C280.746 19.5173 281.119 18.12 281.866 16.84C282.634 15.5387 283.658 14.5147 284.938 13.768C286.239 13 287.647 12.616 289.162 12.616C290.676 12.616 292.074 13 293.354 13.768C294.655 14.5147 295.679 15.5387 296.426 16.84C297.194 18.12 297.578 19.5173 297.578 21.032C297.578 22.5467 297.194 23.9547 296.426 25.256C295.679 26.536 294.655 27.56 293.354 28.328C292.074 29.0747 290.676 29.448 289.162 29.448ZM289.13 25.48C289.94 25.48 290.687 25.288 291.37 24.904C292.052 24.4987 292.596 23.9547 293.002 23.272C293.407 22.5893 293.61 21.8427 293.61 21.032C293.61 20.2213 293.407 19.4747 293.002 18.792C292.596 18.1093 292.052 17.5653 291.37 17.16C290.687 16.7547 289.94 16.552 289.13 16.552C288.319 16.552 287.572 16.7547 286.89 17.16C286.207 17.5653 285.663 18.1093 285.258 18.792C284.874 19.4747 284.682 20.2213 284.682 21.032C284.682 21.8427 284.874 22.5893 285.258 23.272C285.663 23.9547 286.207 24.4987 286.89 24.904C287.572 25.288 288.319 25.48 289.13 25.48ZM310.191 13H314.159V29H310.191V27.656C309.615 28.1893 308.975 28.616 308.271 28.936C307.567 29.256 306.82 29.416 306.031 29.416C305.092 29.416 304.132 29.224 303.151 28.84C302.191 28.4347 301.359 27.72 300.655 26.696C299.972 25.672 299.631 24.296 299.631 22.568V13H303.599V22.568C303.599 23.7627 303.929 24.6267 304.591 25.16C305.273 25.672 306.063 25.928 306.959 25.928C307.855 25.928 308.612 25.6187 309.231 25C309.871 24.36 310.191 23.3467 310.191 21.96V13ZM329.999 13H333.967V28.2C333.967 29.7147 333.583 31.048 332.815 32.2C332.068 33.352 331.023 34.2373 329.679 34.856C328.335 35.496 326.831 35.816 325.167 35.816C323.311 35.816 321.626 35.4533 320.111 34.728C318.596 34.024 317.53 33.096 316.911 31.944L320.303 29.992C320.623 30.6107 321.22 31.1227 322.095 31.528C322.97 31.9547 324.026 32.168 325.263 32.168C326.628 32.168 327.759 31.7947 328.655 31.048C329.551 30.3227 329.999 29.3733 329.999 28.2V27.464C329.274 28.104 328.463 28.5947 327.567 28.936C326.671 29.2773 325.743 29.448 324.783 29.448C323.162 29.448 321.743 29.0853 320.527 28.36C319.311 27.6347 318.372 26.632 317.711 25.352C317.071 24.072 316.751 22.632 316.751 21.032C316.751 19.432 317.071 17.992 317.711 16.712C318.372 15.432 319.311 14.4293 320.527 13.704C321.743 12.9573 323.162 12.584 324.783 12.584C325.743 12.584 326.66 12.7653 327.535 13.128C328.431 13.4693 329.252 13.9493 329.999 14.568V13ZM325.295 25.64C326.17 25.64 326.959 25.448 327.663 25.064C328.388 24.6587 328.954 24.104 329.359 23.4C329.786 22.696 329.999 21.896 329.999 21C329.999 19.656 329.54 18.5573 328.623 17.704C327.727 16.8507 326.618 16.424 325.295 16.424C323.951 16.424 322.842 16.8613 321.967 17.736C321.114 18.5893 320.687 19.688 320.687 21.032C320.687 22.376 321.114 23.4853 321.967 24.36C322.842 25.2133 323.951 25.64 325.295 25.64ZM352.448 29H348.512V19.528C348.512 18.3333 348.171 17.48 347.488 16.968C346.827 16.4347 346.037 16.168 345.12 16.168C344.395 16.168 343.733 16.392 343.136 16.84C342.56 17.288 342.187 18.0027 342.016 18.984V29H338.048V6.6H342.016V14.344C342.549 13.832 343.157 13.4267 343.84 13.128C344.544 12.8293 345.291 12.68 346.08 12.68C347.019 12.68 347.968 12.8827 348.928 13.288C349.888 13.672 350.709 14.3653 351.392 15.368C352.096 16.3707 352.448 17.7253 352.448 19.432V29ZM360.928 23.528C360.928 24.2533 361.098 24.7547 361.44 25.032C361.781 25.3093 362.325 25.448 363.072 25.448C363.52 25.448 364.01 25.416 364.544 25.352V29C363.541 29.1067 362.709 29.16 362.048 29.16C360.341 29.16 359.061 28.776 358.208 28.008C357.376 27.2187 356.96 25.8107 356.96 23.784V16.552H353.952V13H356.96V9.064L360.928 7.72V13H364.48V16.552H360.928V23.528ZM370.66 17.48C370.66 17.928 370.906 18.2693 371.396 18.504C371.908 18.7173 372.708 18.9413 373.796 19.176C375.034 19.432 376.068 19.72 376.9 20.04C377.732 20.36 378.447 20.872 379.044 21.576C379.663 22.2587 379.972 23.1867 379.972 24.36C379.972 25.4053 379.652 26.312 379.012 27.08C378.394 27.848 377.562 28.4347 376.516 28.84C375.471 29.224 374.33 29.416 373.092 29.416C371.407 29.416 369.956 29.096 368.74 28.456C367.546 27.816 366.66 26.8987 366.084 25.704L369.348 24.008C369.924 25.48 371.172 26.216 373.092 26.216C373.924 26.216 374.639 26.056 375.236 25.736C375.834 25.416 376.132 24.9573 376.132 24.36C376.132 23.848 375.855 23.4747 375.3 23.24C374.767 22.984 373.892 22.7067 372.676 22.408C371.418 22.1093 370.394 21.8107 369.604 21.512C368.815 21.2133 368.132 20.7547 367.556 20.136C366.98 19.496 366.692 18.6533 366.692 17.608C366.692 16.584 366.98 15.6987 367.556 14.952C368.132 14.184 368.911 13.5973 369.892 13.192C370.874 12.7867 371.951 12.584 373.124 12.584C374.511 12.584 375.748 12.872 376.836 13.448C377.946 14.024 378.799 14.8453 379.396 15.912L376.164 17.544C375.61 16.3493 374.596 15.752 373.124 15.752C372.378 15.752 371.78 15.912 371.332 16.232C370.884 16.5307 370.66 16.9467 370.66 17.48ZM398.787 29.448C397.272 29.448 395.864 29.0747 394.563 28.328C393.283 27.56 392.259 26.536 391.491 25.256C390.744 23.9547 390.371 22.5467 390.371 21.032C390.371 19.5173 390.744 18.12 391.491 16.84C392.259 15.5387 393.283 14.5147 394.563 13.768C395.864 13 397.272 12.616 398.787 12.616C400.301 12.616 401.699 13 402.979 13.768C404.28 14.5147 405.304 15.5387 406.051 16.84C406.819 18.12 407.203 19.5173 407.203 21.032C407.203 22.5467 406.819 23.9547 406.051 25.256C405.304 26.536 404.28 27.56 402.979 28.328C401.699 29.0747 400.301 29.448 398.787 29.448ZM398.755 25.48C399.565 25.48 400.312 25.288 400.995 24.904C401.677 24.4987 402.221 23.9547 402.627 23.272C403.032 22.5893 403.235 21.8427 403.235 21.032C403.235 20.2213 403.032 19.4747 402.627 18.792C402.221 18.1093 401.677 17.5653 400.995 17.16C400.312 16.7547 399.565 16.552 398.755 16.552C397.944 16.552 397.197 16.7547 396.515 17.16C395.832 17.5653 395.288 18.1093 394.883 18.792C394.499 19.4747 394.307 20.2213 394.307 21.032C394.307 21.8427 394.499 22.5893 394.883 23.272C395.288 23.9547 395.832 24.4987 396.515 24.904C397.197 25.288 397.944 25.48 398.755 25.48ZM419.816 13H423.784V29H419.816V27.656C419.24 28.1893 418.6 28.616 417.896 28.936C417.192 29.256 416.445 29.416 415.656 29.416C414.717 29.416 413.757 29.224 412.776 28.84C411.816 28.4347 410.984 27.72 410.28 26.696C409.597 25.672 409.256 24.296 409.256 22.568V13H413.224V22.568C413.224 23.7627 413.554 24.6267 414.216 25.16C414.898 25.672 415.688 25.928 416.584 25.928C417.48 25.928 418.237 25.6187 418.856 25C419.496 24.36 419.816 23.3467 419.816 21.96V13ZM432.647 23.528C432.647 24.2533 432.817 24.7547 433.159 25.032C433.5 25.3093 434.044 25.448 434.791 25.448C435.239 25.448 435.729 25.416 436.263 25.352V29C435.26 29.1067 434.428 29.16 433.767 29.16C432.06 29.16 430.78 28.776 429.927 28.008C429.095 27.2187 428.679 25.8107 428.679 23.784V16.552H425.671V13H428.679V9.064L432.647 7.72V13H436.199V16.552H432.647V23.528ZM259.568 59.448C258.053 59.448 256.645 59.0747 255.344 58.328C254.064 57.56 253.04 56.536 252.272 55.256C251.525 53.9547 251.152 52.5467 251.152 51.032C251.152 49.5173 251.525 48.12 252.272 46.84C253.04 45.5387 254.064 44.5147 255.344 43.768C256.645 43 258.053 42.616 259.568 42.616C261.083 42.616 262.48 43 263.76 43.768C265.061 44.5147 266.085 45.5387 266.832 46.84C267.6 48.12 267.984 49.5173 267.984 51.032C267.984 52.5467 267.6 53.9547 266.832 55.256C266.085 56.536 265.061 57.56 263.76 58.328C262.48 59.0747 261.083 59.448 259.568 59.448ZM259.536 55.48C260.347 55.48 261.093 55.288 261.776 54.904C262.459 54.4987 263.003 53.9547 263.408 53.272C263.813 52.5893 264.016 51.8427 264.016 51.032C264.016 50.2213 263.813 49.4747 263.408 48.792C263.003 48.1093 262.459 47.5653 261.776 47.16C261.093 46.7547 260.347 46.552 259.536 46.552C258.725 46.552 257.979 46.7547 257.296 47.16C256.613 47.5653 256.069 48.1093 255.664 48.792C255.28 49.4747 255.088 50.2213 255.088 51.032C255.088 51.8427 255.28 52.5893 255.664 53.272C256.069 53.9547 256.613 54.4987 257.296 54.904C257.979 55.288 258.725 55.48 259.536 55.48ZM278.645 42.584C279.583 42.584 280.533 42.7867 281.493 43.192C282.474 43.576 283.306 44.28 283.989 45.304C284.693 46.328 285.045 47.704 285.045 49.432V59H281.077V49.432C281.077 48.2373 280.735 47.384 280.053 46.872C279.391 46.3387 278.613 46.072 277.717 46.072C276.821 46.072 276.053 46.392 275.413 47.032C274.794 47.6507 274.485 48.6533 274.485 50.04V59H270.517V43H274.485V44.344C275.061 43.8107 275.701 43.384 276.405 43.064C277.109 42.744 277.855 42.584 278.645 42.584ZM302.584 53.528C302.584 54.2533 302.755 54.7547 303.096 55.032C303.437 55.3093 303.981 55.448 304.728 55.448C305.176 55.448 305.667 55.416 306.2 55.352V59C305.197 59.1067 304.365 59.16 303.704 59.16C301.997 59.16 300.717 58.776 299.864 58.008C299.032 57.2187 298.616 55.8107 298.616 53.784V46.552H295.608V43H298.616V39.064L302.584 37.72V43H306.136V46.552H302.584V53.528ZM323.417 59H319.481V49.528C319.481 48.3333 319.139 47.48 318.457 46.968C317.795 46.4347 317.006 46.168 316.089 46.168C315.363 46.168 314.702 46.392 314.105 46.84C313.529 47.288 313.155 48.0027 312.985 48.984V59H309.017V36.6H312.985V44.344C313.518 43.832 314.126 43.4267 314.809 43.128C315.513 42.8293 316.259 42.68 317.049 42.68C317.987 42.68 318.937 42.8827 319.897 43.288C320.857 43.672 321.678 44.3653 322.361 45.368C323.065 46.3707 323.417 47.7253 323.417 49.432V59ZM333.943 42.584C335.479 42.584 336.855 42.968 338.071 43.736C339.308 44.4827 340.268 45.496 340.951 46.776C341.634 48.056 341.975 49.4747 341.975 51.032C341.975 51.544 341.932 52.0133 341.847 52.44H329.495C329.815 53.5707 330.38 54.456 331.191 55.096C332.002 55.7147 333.036 56.024 334.295 56.024C335.063 56.024 335.799 55.8533 336.503 55.512C337.228 55.1707 337.772 54.7333 338.135 54.2L341.175 55.992C340.428 57.1013 339.458 57.9547 338.263 58.552C337.09 59.128 335.735 59.416 334.199 59.416C332.492 59.416 330.978 59.0533 329.655 58.328C328.332 57.6027 327.308 56.6 326.583 55.32C325.879 54.04 325.527 52.6 325.527 51C325.527 49.4213 325.879 47.992 326.583 46.712C327.308 45.432 328.311 44.4293 329.591 43.704C330.871 42.9573 332.322 42.584 333.943 42.584ZM338.263 49.336C338.092 48.312 337.612 47.512 336.823 46.936C336.055 46.3387 335.084 46.04 333.911 46.04C333.1 46.04 332.354 46.1893 331.671 46.488C331.01 46.7867 330.476 47.192 330.071 47.704C329.666 48.216 329.452 48.76 329.431 49.336H338.263ZM368.721 52.696L371.697 43H375.857L370.673 59H366.737L363.729 49.496L360.721 59H356.849L351.793 43H355.921L358.801 52.632L361.617 43H365.841L368.721 52.696ZM384.818 59.448C383.303 59.448 381.895 59.0747 380.594 58.328C379.314 57.56 378.29 56.536 377.522 55.256C376.775 53.9547 376.402 52.5467 376.402 51.032C376.402 49.5173 376.775 48.12 377.522 46.84C378.29 45.5387 379.314 44.5147 380.594 43.768C381.895 43 383.303 42.616 384.818 42.616C386.333 42.616 387.73 43 389.01 43.768C390.311 44.5147 391.335 45.5387 392.082 46.84C392.85 48.12 393.234 49.5173 393.234 51.032C393.234 52.5467 392.85 53.9547 392.082 55.256C391.335 56.536 390.311 57.56 389.01 58.328C387.73 59.0747 386.333 59.448 384.818 59.448ZM384.786 55.48C385.597 55.48 386.343 55.288 387.026 54.904C387.709 54.4987 388.253 53.9547 388.658 53.272C389.063 52.5893 389.266 51.8427 389.266 51.032C389.266 50.2213 389.063 49.4747 388.658 48.792C388.253 48.1093 387.709 47.5653 387.026 47.16C386.343 46.7547 385.597 46.552 384.786 46.552C383.975 46.552 383.229 46.7547 382.546 47.16C381.863 47.5653 381.319 48.1093 380.914 48.792C380.53 49.4747 380.338 50.2213 380.338 51.032C380.338 51.8427 380.53 52.5893 380.914 53.272C381.319 53.9547 381.863 54.4987 382.546 54.904C383.229 55.288 383.975 55.48 384.786 55.48ZM405.271 42.68L404.983 46.424C404.855 46.3813 404.631 46.36 404.311 46.36C402.988 46.36 401.889 46.744 401.015 47.512C400.161 48.28 399.735 49.3253 399.735 50.648V59H395.767V43H399.735V45.688C400.097 44.8347 400.716 44.12 401.591 43.544C402.465 42.968 403.521 42.68 404.759 42.68H405.271ZM411.766 54.488C411.766 54.8293 411.851 55.0747 412.022 55.224C412.193 55.3733 412.459 55.448 412.822 55.448C413.099 55.448 413.43 55.416 413.814 55.352V59C413.025 59.128 412.289 59.192 411.606 59.192C410.369 59.192 409.419 58.872 408.758 58.232C408.118 57.5707 407.798 56.408 407.798 54.744V36.6H411.766V54.488ZM428.716 36.6H432.684V59H428.716V57.464C427.991 58.104 427.18 58.5947 426.284 58.936C425.388 59.2773 424.46 59.448 423.5 59.448C421.879 59.448 420.46 59.0853 419.244 58.36C418.028 57.6347 417.09 56.632 416.428 55.352C415.788 54.072 415.468 52.632 415.468 51.032C415.468 49.432 415.788 47.992 416.428 46.712C417.09 45.432 418.028 44.4293 419.244 43.704C420.46 42.9573 421.879 42.584 423.5 42.584C424.46 42.584 425.378 42.7653 426.252 43.128C427.148 43.4693 427.97 43.9493 428.716 44.568V36.6ZM424.012 55.64C424.887 55.64 425.676 55.448 426.38 55.064C427.106 54.6587 427.671 54.104 428.076 53.4C428.503 52.696 428.716 51.896 428.716 51C428.716 49.656 428.258 48.5573 427.34 47.704C426.444 46.8507 425.335 46.424 424.012 46.424C422.668 46.424 421.559 46.8613 420.684 47.736C419.831 48.5893 419.404 49.688 419.404 51.032C419.404 52.376 419.831 53.4853 420.684 54.36C421.559 55.2133 422.668 55.64 424.012 55.64Z" fill="#FF5E14"/>
<path d="M256.584 22.528C256.584 23.2533 256.755 23.7547 257.096 24.032C257.437 24.3093 257.981 24.448 258.728 24.448C259.176 24.448 259.667 24.416 260.2 24.352V28C259.197 28.1067 258.365 28.16 257.704 28.16C255.997 28.16 254.717 27.776 253.864 27.008C253.032 26.2187 252.616 24.8107 252.616 22.784V15.552H249.608V12H252.616V8.064L256.584 6.72V12H260.136V15.552H256.584V22.528ZM277.417 28H273.481V18.528C273.481 17.3333 273.139 16.48 272.457 15.968C271.795 15.4347 271.006 15.168 270.089 15.168C269.363 15.168 268.702 15.392 268.105 15.84C267.529 16.288 267.155 17.0027 266.985 17.984V28H263.017V5.6H266.985V13.344C267.518 12.832 268.126 12.4267 268.809 12.128C269.513 11.8293 270.259 11.68 271.049 11.68C271.987 11.68 272.937 11.8827 273.897 12.288C274.857 12.672 275.678 13.3653 276.361 14.368C277.065 15.3707 277.417 16.7253 277.417 18.432V28ZM288.162 28.448C286.647 28.448 285.239 28.0747 283.938 27.328C282.658 26.56 281.634 25.536 280.866 24.256C280.119 22.9547 279.746 21.5467 279.746 20.032C279.746 18.5173 280.119 17.12 280.866 15.84C281.634 14.5387 282.658 13.5147 283.938 12.768C285.239 12 286.647 11.616 288.162 11.616C289.676 11.616 291.074 12 292.354 12.768C293.655 13.5147 294.679 14.5387 295.426 15.84C296.194 17.12 296.578 18.5173 296.578 20.032C296.578 21.5467 296.194 22.9547 295.426 24.256C294.679 25.536 293.655 26.56 292.354 27.328C291.074 28.0747 289.676 28.448 288.162 28.448ZM288.13 24.48C288.94 24.48 289.687 24.288 290.37 23.904C291.052 23.4987 291.596 22.9547 292.002 22.272C292.407 21.5893 292.61 20.8427 292.61 20.032C292.61 19.2213 292.407 18.4747 292.002 17.792C291.596 17.1093 291.052 16.5653 290.37 16.16C289.687 15.7547 288.94 15.552 288.13 15.552C287.319 15.552 286.572 15.7547 285.89 16.16C285.207 16.5653 284.663 17.1093 284.258 17.792C283.874 18.4747 283.682 19.2213 283.682 20.032C283.682 20.8427 283.874 21.5893 284.258 22.272C284.663 22.9547 285.207 23.4987 285.89 23.904C286.572 24.288 287.319 24.48 288.13 24.48ZM309.191 12H313.159V28H309.191V26.656C308.615 27.1893 307.975 27.616 307.271 27.936C306.567 28.256 305.82 28.416 305.031 28.416C304.092 28.416 303.132 28.224 302.151 27.84C301.191 27.4347 300.359 26.72 299.655 25.696C298.972 24.672 298.631 23.296 298.631 21.568V12H302.599V21.568C302.599 22.7627 302.929 23.6267 303.591 24.16C304.273 24.672 305.063 24.928 305.959 24.928C306.855 24.928 307.612 24.6187 308.231 24C308.871 23.36 309.191 22.3467 309.191 20.96V12ZM328.999 12H332.967V27.2C332.967 28.7147 332.583 30.048 331.815 31.2C331.068 32.352 330.023 33.2373 328.679 33.856C327.335 34.496 325.831 34.816 324.167 34.816C322.311 34.816 320.626 34.4533 319.111 33.728C317.596 33.024 316.53 32.096 315.911 30.944L319.303 28.992C319.623 29.6107 320.22 30.1227 321.095 30.528C321.97 30.9547 323.026 31.168 324.263 31.168C325.628 31.168 326.759 30.7947 327.655 30.048C328.551 29.3227 328.999 28.3733 328.999 27.2V26.464C328.274 27.104 327.463 27.5947 326.567 27.936C325.671 28.2773 324.743 28.448 323.783 28.448C322.162 28.448 320.743 28.0853 319.527 27.36C318.311 26.6347 317.372 25.632 316.711 24.352C316.071 23.072 315.751 21.632 315.751 20.032C315.751 18.432 316.071 16.992 316.711 15.712C317.372 14.432 318.311 13.4293 319.527 12.704C320.743 11.9573 322.162 11.584 323.783 11.584C324.743 11.584 325.66 11.7653 326.535 12.128C327.431 12.4693 328.252 12.9493 328.999 13.568V12ZM324.295 24.64C325.17 24.64 325.959 24.448 326.663 24.064C327.388 23.6587 327.954 23.104 328.359 22.4C328.786 21.696 328.999 20.896 328.999 20C328.999 18.656 328.54 17.5573 327.623 16.704C326.727 15.8507 325.618 15.424 324.295 15.424C322.951 15.424 321.842 15.8613 320.967 16.736C320.114 17.5893 319.687 18.688 319.687 20.032C319.687 21.376 320.114 22.4853 320.967 23.36C321.842 24.2133 322.951 24.64 324.295 24.64ZM351.448 28H347.512V18.528C347.512 17.3333 347.171 16.48 346.488 15.968C345.827 15.4347 345.037 15.168 344.12 15.168C343.395 15.168 342.733 15.392 342.136 15.84C341.56 16.288 341.187 17.0027 341.016 17.984V28H337.048V5.6H341.016V13.344C341.549 12.832 342.157 12.4267 342.84 12.128C343.544 11.8293 344.291 11.68 345.08 11.68C346.019 11.68 346.968 11.8827 347.928 12.288C348.888 12.672 349.709 13.3653 350.392 14.368C351.096 15.3707 351.448 16.7253 351.448 18.432V28ZM359.928 22.528C359.928 23.2533 360.098 23.7547 360.44 24.032C360.781 24.3093 361.325 24.448 362.072 24.448C362.52 24.448 363.01 24.416 363.544 24.352V28C362.541 28.1067 361.709 28.16 361.048 28.16C359.341 28.16 358.061 27.776 357.208 27.008C356.376 26.2187 355.96 24.8107 355.96 22.784V15.552H352.952V12H355.96V8.064L359.928 6.72V12H363.48V15.552H359.928V22.528ZM369.66 16.48C369.66 16.928 369.906 17.2693 370.396 17.504C370.908 17.7173 371.708 17.9413 372.796 18.176C374.034 18.432 375.068 18.72 375.9 19.04C376.732 19.36 377.447 19.872 378.044 20.576C378.663 21.2587 378.972 22.1867 378.972 23.36C378.972 24.4053 378.652 25.312 378.012 26.08C377.394 26.848 376.562 27.4347 375.516 27.84C374.471 28.224 373.33 28.416 372.092 28.416C370.407 28.416 368.956 28.096 367.74 27.456C366.546 26.816 365.66 25.8987 365.084 24.704L368.348 23.008C368.924 24.48 370.172 25.216 372.092 25.216C372.924 25.216 373.639 25.056 374.236 24.736C374.834 24.416 375.132 23.9573 375.132 23.36C375.132 22.848 374.855 22.4747 374.3 22.24C373.767 21.984 372.892 21.7067 371.676 21.408C370.418 21.1093 369.394 20.8107 368.604 20.512C367.815 20.2133 367.132 19.7547 366.556 19.136C365.98 18.496 365.692 17.6533 365.692 16.608C365.692 15.584 365.98 14.6987 366.556 13.952C367.132 13.184 367.911 12.5973 368.892 12.192C369.874 11.7867 370.951 11.584 372.124 11.584C373.511 11.584 374.748 11.872 375.836 12.448C376.946 13.024 377.799 13.8453 378.396 14.912L375.164 16.544C374.61 15.3493 373.596 14.752 372.124 14.752C371.378 14.752 370.78 14.912 370.332 15.232C369.884 15.5307 369.66 15.9467 369.66 16.48ZM397.787 28.448C396.272 28.448 394.864 28.0747 393.563 27.328C392.283 26.56 391.259 25.536 390.491 24.256C389.744 22.9547 389.371 21.5467 389.371 20.032C389.371 18.5173 389.744 17.12 390.491 15.84C391.259 14.5387 392.283 13.5147 393.563 12.768C394.864 12 396.272 11.616 397.787 11.616C399.301 11.616 400.699 12 401.979 12.768C403.28 13.5147 404.304 14.5387 405.051 15.84C405.819 17.12 406.203 18.5173 406.203 20.032C406.203 21.5467 405.819 22.9547 405.051 24.256C404.304 25.536 403.28 26.56 401.979 27.328C400.699 28.0747 399.301 28.448 397.787 28.448ZM397.755 24.48C398.565 24.48 399.312 24.288 399.995 23.904C400.677 23.4987 401.221 22.9547 401.627 22.272C402.032 21.5893 402.235 20.8427 402.235 20.032C402.235 19.2213 402.032 18.4747 401.627 17.792C401.221 17.1093 400.677 16.5653 399.995 16.16C399.312 15.7547 398.565 15.552 397.755 15.552C396.944 15.552 396.197 15.7547 395.515 16.16C394.832 16.5653 394.288 17.1093 393.883 17.792C393.499 18.4747 393.307 19.2213 393.307 20.032C393.307 20.8427 393.499 21.5893 393.883 22.272C394.288 22.9547 394.832 23.4987 395.515 23.904C396.197 24.288 396.944 24.48 397.755 24.48ZM418.816 12H422.784V28H418.816V26.656C418.24 27.1893 417.6 27.616 416.896 27.936C416.192 28.256 415.445 28.416 414.656 28.416C413.717 28.416 412.757 28.224 411.776 27.84C410.816 27.4347 409.984 26.72 409.28 25.696C408.597 24.672 408.256 23.296 408.256 21.568V12H412.224V21.568C412.224 22.7627 412.554 23.6267 413.216 24.16C413.898 24.672 414.688 24.928 415.584 24.928C416.48 24.928 417.237 24.6187 417.856 24C418.496 23.36 418.816 22.3467 418.816 20.96V12ZM431.647 22.528C431.647 23.2533 431.817 23.7547 432.159 24.032C432.5 24.3093 433.044 24.448 433.791 24.448C434.239 24.448 434.729 24.416 435.263 24.352V28C434.26 28.1067 433.428 28.16 432.767 28.16C431.06 28.16 429.78 27.776 428.927 27.008C428.095 26.2187 427.679 24.8107 427.679 22.784V15.552H424.671V12H427.679V8.064L431.647 6.72V12H435.199V15.552H431.647V22.528ZM258.568 58.448C257.053 58.448 255.645 58.0747 254.344 57.328C253.064 56.56 252.04 55.536 251.272 54.256C250.525 52.9547 250.152 51.5467 250.152 50.032C250.152 48.5173 250.525 47.12 251.272 45.84C252.04 44.5387 253.064 43.5147 254.344 42.768C255.645 42 257.053 41.616 258.568 41.616C260.083 41.616 261.48 42 262.76 42.768C264.061 43.5147 265.085 44.5387 265.832 45.84C266.6 47.12 266.984 48.5173 266.984 50.032C266.984 51.5467 266.6 52.9547 265.832 54.256C265.085 55.536 264.061 56.56 262.76 57.328C261.48 58.0747 260.083 58.448 258.568 58.448ZM258.536 54.48C259.347 54.48 260.093 54.288 260.776 53.904C261.459 53.4987 262.003 52.9547 262.408 52.272C262.813 51.5893 263.016 50.8427 263.016 50.032C263.016 49.2213 262.813 48.4747 262.408 47.792C262.003 47.1093 261.459 46.5653 260.776 46.16C260.093 45.7547 259.347 45.552 258.536 45.552C257.725 45.552 256.979 45.7547 256.296 46.16C255.613 46.5653 255.069 47.1093 254.664 47.792C254.28 48.4747 254.088 49.2213 254.088 50.032C254.088 50.8427 254.28 51.5893 254.664 52.272C255.069 52.9547 255.613 53.4987 256.296 53.904C256.979 54.288 257.725 54.48 258.536 54.48ZM277.645 41.584C278.583 41.584 279.533 41.7867 280.493 42.192C281.474 42.576 282.306 43.28 282.989 44.304C283.693 45.328 284.045 46.704 284.045 48.432V58H280.077V48.432C280.077 47.2373 279.735 46.384 279.053 45.872C278.391 45.3387 277.613 45.072 276.717 45.072C275.821 45.072 275.053 45.392 274.413 46.032C273.794 46.6507 273.485 47.6533 273.485 49.04V58H269.517V42H273.485V43.344C274.061 42.8107 274.701 42.384 275.405 42.064C276.109 41.744 276.855 41.584 277.645 41.584ZM301.584 52.528C301.584 53.2533 301.755 53.7547 302.096 54.032C302.437 54.3093 302.981 54.448 303.728 54.448C304.176 54.448 304.667 54.416 305.2 54.352V58C304.197 58.1067 303.365 58.16 302.704 58.16C300.997 58.16 299.717 57.776 298.864 57.008C298.032 56.2187 297.616 54.8107 297.616 52.784V45.552H294.608V42H297.616V38.064L301.584 36.72V42H305.136V45.552H301.584V52.528ZM322.417 58H318.481V48.528C318.481 47.3333 318.139 46.48 317.457 45.968C316.795 45.4347 316.006 45.168 315.089 45.168C314.363 45.168 313.702 45.392 313.105 45.84C312.529 46.288 312.155 47.0027 311.985 47.984V58H308.017V35.6H311.985V43.344C312.518 42.832 313.126 42.4267 313.809 42.128C314.513 41.8293 315.259 41.68 316.049 41.68C316.987 41.68 317.937 41.8827 318.897 42.288C319.857 42.672 320.678 43.3653 321.361 44.368C322.065 45.3707 322.417 46.7253 322.417 48.432V58ZM332.943 41.584C334.479 41.584 335.855 41.968 337.071 42.736C338.308 43.4827 339.268 44.496 339.951 45.776C340.634 47.056 340.975 48.4747 340.975 50.032C340.975 50.544 340.932 51.0133 340.847 51.44H328.495C328.815 52.5707 329.38 53.456 330.191 54.096C331.002 54.7147 332.036 55.024 333.295 55.024C334.063 55.024 334.799 54.8533 335.503 54.512C336.228 54.1707 336.772 53.7333 337.135 53.2L340.175 54.992C339.428 56.1013 338.458 56.9547 337.263 57.552C336.09 58.128 334.735 58.416 333.199 58.416C331.492 58.416 329.978 58.0533 328.655 57.328C327.332 56.6027 326.308 55.6 325.583 54.32C324.879 53.04 324.527 51.6 324.527 50C324.527 48.4213 324.879 46.992 325.583 45.712C326.308 44.432 327.311 43.4293 328.591 42.704C329.871 41.9573 331.322 41.584 332.943 41.584ZM337.263 48.336C337.092 47.312 336.612 46.512 335.823 45.936C335.055 45.3387 334.084 45.04 332.911 45.04C332.1 45.04 331.354 45.1893 330.671 45.488C330.01 45.7867 329.476 46.192 329.071 46.704C328.666 47.216 328.452 47.76 328.431 48.336H337.263ZM367.721 51.696L370.697 42H374.857L369.673 58H365.737L362.729 48.496L359.721 58H355.849L350.793 42H354.921L357.801 51.632L360.617 42H364.841L367.721 51.696ZM383.818 58.448C382.303 58.448 380.895 58.0747 379.594 57.328C378.314 56.56 377.29 55.536 376.522 54.256C375.775 52.9547 375.402 51.5467 375.402 50.032C375.402 48.5173 375.775 47.12 376.522 45.84C377.29 44.5387 378.314 43.5147 379.594 42.768C380.895 42 382.303 41.616 383.818 41.616C385.333 41.616 386.73 42 388.01 42.768C389.311 43.5147 390.335 44.5387 391.082 45.84C391.85 47.12 392.234 48.5173 392.234 50.032C392.234 51.5467 391.85 52.9547 391.082 54.256C390.335 55.536 389.311 56.56 388.01 57.328C386.73 58.0747 385.333 58.448 383.818 58.448ZM383.786 54.48C384.597 54.48 385.343 54.288 386.026 53.904C386.709 53.4987 387.253 52.9547 387.658 52.272C388.063 51.5893 388.266 50.8427 388.266 50.032C388.266 49.2213 388.063 48.4747 387.658 47.792C387.253 47.1093 386.709 46.5653 386.026 46.16C385.343 45.7547 384.597 45.552 383.786 45.552C382.975 45.552 382.229 45.7547 381.546 46.16C380.863 46.5653 380.319 47.1093 379.914 47.792C379.53 48.4747 379.338 49.2213 379.338 50.032C379.338 50.8427 379.53 51.5893 379.914 52.272C380.319 52.9547 380.863 53.4987 381.546 53.904C382.229 54.288 382.975 54.48 383.786 54.48ZM404.271 41.68L403.983 45.424C403.855 45.3813 403.631 45.36 403.311 45.36C401.988 45.36 400.889 45.744 400.015 46.512C399.161 47.28 398.735 48.3253 398.735 49.648V58H394.767V42H398.735V44.688C399.097 43.8347 399.716 43.12 400.591 42.544C401.465 41.968 402.521 41.68 403.759 41.68H404.271ZM410.766 53.488C410.766 53.8293 410.851 54.0747 411.022 54.224C411.193 54.3733 411.459 54.448 411.822 54.448C412.099 54.448 412.43 54.416 412.814 54.352V58C412.025 58.128 411.289 58.192 410.606 58.192C409.369 58.192 408.419 57.872 407.758 57.232C407.118 56.5707 406.798 55.408 406.798 53.744V35.6H410.766V53.488ZM427.716 35.6H431.684V58H427.716V56.464C426.991 57.104 426.18 57.5947 425.284 57.936C424.388 58.2773 423.46 58.448 422.5 58.448C420.879 58.448 419.46 58.0853 418.244 57.36C417.028 56.6347 416.09 55.632 415.428 54.352C414.788 53.072 414.468 51.632 414.468 50.032C414.468 48.432 414.788 46.992 415.428 45.712C416.09 44.432 417.028 43.4293 418.244 42.704C419.46 41.9573 420.879 41.584 422.5 41.584C423.46 41.584 424.378 41.7653 425.252 42.128C426.148 42.4693 426.97 42.9493 427.716 43.568V35.6ZM423.012 54.64C423.887 54.64 424.676 54.448 425.38 54.064C426.106 53.6587 426.671 53.104 427.076 52.4C427.503 51.696 427.716 50.896 427.716 50C427.716 48.656 427.258 47.5573 426.34 46.704C425.444 45.8507 424.335 45.424 423.012 45.424C421.668 45.424 420.559 45.8613 419.684 46.736C418.831 47.5893 418.404 48.688 418.404 50.032C418.404 51.376 418.831 52.4853 419.684 53.36C420.559 54.2133 421.668 54.64 423.012 54.64Z" fill="white"/>
</svg>
