<svg width="410" height="111" viewBox="0 0 410 111" fill="none" xmlns="http://www.w3.org/2000/svg">
<path d="M57.792 20.896V20.8H74.112V88H57.792V50.752L42.144 76.96H38.112L22.464 50.752V88H6.144V20.8H22.464V20.896L22.56 20.8L40.128 50.176L57.696 20.8L57.792 20.896ZM93.882 35.008C91.066 35.008 88.826 34.24 87.162 32.704C85.562 31.104 84.762 28.992 84.762 26.368C84.762 23.68 85.562 21.568 87.162 20.032C88.826 18.432 91.066 17.632 93.882 17.632C96.698 17.632 98.906 18.432 100.506 20.032C102.17 21.568 103.002 23.68 103.002 26.368C103.002 28.992 102.17 31.104 100.506 32.704C98.906 34.24 96.698 35.008 93.882 35.008ZM86.106 88V40H101.562V88H86.106ZM138.557 38.656C141.373 38.656 144.189 39.264 147.005 40.48C149.885 41.696 152.349 43.84 154.397 46.912C156.445 49.984 157.469 54.112 157.469 59.296V88H142.013V59.296C142.013 56.8 141.277 54.976 139.805 53.824C138.397 52.672 136.669 52.096 134.621 52.096C132.637 52.096 131.005 52.832 129.725 54.304C128.445 55.776 127.805 58.016 127.805 61.024V88H112.349V40H127.805V42.688C131.261 40 134.845 38.656 138.557 38.656ZM201.494 20.8H217.046V88H201.494V85.312C197.334 88.064 192.886 89.44 188.15 89.44C183.094 89.44 178.742 88.352 175.094 86.176C171.51 84 168.79 81.024 166.934 77.248C165.078 73.408 164.15 69.024 164.15 64.096C164.15 59.168 165.078 54.784 166.934 50.944C168.79 47.104 171.51 44.096 175.094 41.92C178.742 39.744 183.094 38.656 188.15 38.656C192.886 38.656 197.334 40.032 201.494 42.784V20.8ZM190.262 74.656C193.462 74.656 196.118 73.664 198.23 71.68C200.406 69.696 201.494 67.104 201.494 63.904C201.494 60.768 200.438 58.272 198.326 56.416C196.214 54.56 193.526 53.632 190.262 53.632C187.126 53.632 184.566 54.592 182.582 56.512C180.598 58.368 179.606 60.896 179.606 64.096C179.606 67.296 180.598 69.856 182.582 71.776C184.566 73.696 187.126 74.656 190.262 74.656ZM245.12 20.8V72.544H271.232V88H228.8V20.8H245.12ZM287.663 35.008C284.847 35.008 282.607 34.24 280.943 32.704C279.343 31.104 278.543 28.992 278.543 26.368C278.543 23.68 279.343 21.568 280.943 20.032C282.607 18.432 284.847 17.632 287.663 17.632C290.479 17.632 292.687 18.432 294.287 20.032C295.951 21.568 296.783 23.68 296.783 26.368C296.783 28.992 295.951 31.104 294.287 32.704C292.687 34.24 290.479 35.008 287.663 35.008ZM279.887 88V40H295.343V88H279.887ZM332.339 38.656C335.155 38.656 337.971 39.264 340.787 40.48C343.667 41.696 346.131 43.84 348.179 46.912C350.227 49.984 351.25 54.112 351.25 59.296V88H335.795V59.296C335.795 56.8 335.059 54.976 333.587 53.824C332.179 52.672 330.451 52.096 328.403 52.096C326.419 52.096 324.787 52.832 323.507 54.304C322.227 55.776 321.587 58.016 321.587 61.024V88H306.131V40H321.587V42.688C325.043 40 328.627 38.656 332.339 38.656ZM382.7 38.656C387.308 38.656 391.468 39.776 395.18 42.016C398.892 44.256 401.772 47.296 403.82 51.136C405.932 54.976 406.988 59.264 406.988 64C406.988 65.792 406.828 67.584 406.508 69.376H372.716C374.06 71.872 375.564 73.632 377.228 74.656C378.956 75.68 381.196 76.192 383.948 76.192C385.676 76.192 387.34 75.872 388.94 75.232C390.604 74.528 391.916 73.568 392.876 72.352L404.588 79.264C402.284 82.528 399.34 85.024 395.756 86.752C392.236 88.48 388.204 89.344 383.66 89.344C378.348 89.344 373.708 88.256 369.74 86.08C365.772 83.84 362.7 80.8 360.523 76.96C358.348 73.12 357.26 68.8 357.26 64C357.26 59.264 358.316 54.976 360.428 51.136C362.604 47.232 365.612 44.192 369.452 42.016C373.356 39.776 377.772 38.656 382.7 38.656ZM392.492 57.568C392.044 55.776 390.892 54.4 389.036 53.44C387.244 52.48 385.1 52 382.604 52C379.98 52 377.644 52.544 375.596 53.632C373.612 54.72 372.556 56.032 372.428 57.568H392.492Z" fill="#FF5E14"/>
<path d="M0 97.6H409.964V102.4H0V97.6Z" fill="#FF5E14"/>
<line y1="100.25" x2="410" y2="100.25" stroke="#FF5E14" stroke-width="5.5"/>
</svg>
