<svg width="697" height="66" viewBox="0 0 697 66" fill="none" xmlns="http://www.w3.org/2000/svg">
<path d="M16.272 42.424C16.272 43.6933 16.5707 44.5707 17.168 45.056C17.7653 45.5413 18.7173 45.784 20.024 45.784C20.808 45.784 21.6667 45.728 22.6 45.616V52C20.8453 52.1867 19.3893 52.28 18.232 52.28C15.2453 52.28 13.0053 51.608 11.512 50.264C10.056 48.8827 9.328 46.4187 9.328 42.872V30.216H4.064V24H9.328V17.112L16.272 14.76V24H22.488V30.216H16.272V42.424ZM52.7293 52H45.8413V35.424C45.8413 33.3333 45.244 31.84 44.0493 30.944C42.892 30.0107 41.5106 29.544 39.9053 29.544C38.636 29.544 37.4786 29.936 36.4333 30.72C35.4253 31.504 34.772 32.7547 34.4733 34.472V52H27.5293V12.8H34.4733V26.352C35.4066 25.456 36.4706 24.7467 37.6653 24.224C38.8973 23.7013 40.204 23.44 41.5853 23.44C43.228 23.44 44.8893 23.7947 46.5693 24.504C48.2493 25.176 49.6866 26.3893 50.8813 28.144C52.1133 29.8987 52.7293 32.2693 52.7293 35.256V52ZM71.5331 52.784C68.8824 52.784 66.4184 52.1307 64.1411 50.824C61.9011 49.48 60.1091 47.688 58.7651 45.448C57.4584 43.1707 56.8051 40.7067 56.8051 38.056C56.8051 35.4053 57.4584 32.96 58.7651 30.72C60.1091 28.4427 61.9011 26.6507 64.1411 25.344C66.4184 24 68.8824 23.328 71.5331 23.328C74.1837 23.328 76.6291 24 78.8691 25.344C81.1464 26.6507 82.9384 28.4427 84.2451 30.72C85.5891 32.96 86.2611 35.4053 86.2611 38.056C86.2611 40.7067 85.5891 43.1707 84.2451 45.448C82.9384 47.688 81.1464 49.48 78.8691 50.824C76.6291 52.1307 74.1837 52.784 71.5331 52.784ZM71.4771 45.84C72.8957 45.84 74.2024 45.504 75.3971 44.832C76.5917 44.1227 77.5437 43.1707 78.2531 41.976C78.9624 40.7813 79.3171 39.4747 79.3171 38.056C79.3171 36.6373 78.9624 35.3307 78.2531 34.136C77.5437 32.9413 76.5917 31.9893 75.3971 31.28C74.2024 30.5707 72.8957 30.216 71.4771 30.216C70.0584 30.216 68.7517 30.5707 67.5571 31.28C66.3624 31.9893 65.4104 32.9413 64.7011 34.136C64.0291 35.3307 63.6931 36.6373 63.6931 38.056C63.6931 39.4747 64.0291 40.7813 64.7011 41.976C65.4104 43.1707 66.3624 44.1227 67.5571 44.832C68.7517 45.504 70.0584 45.84 71.4771 45.84ZM108.333 24H115.277V52H108.333V49.648C107.325 50.5813 106.205 51.328 104.973 51.888C103.741 52.448 102.435 52.728 101.053 52.728C99.4107 52.728 97.7307 52.392 96.0134 51.72C94.3334 51.0107 92.8774 49.76 91.6454 47.968C90.4507 46.176 89.8534 43.768 89.8534 40.744V24H96.7974V40.744C96.7974 42.8347 97.376 44.3467 98.5334 45.28C99.728 46.176 101.109 46.624 102.677 46.624C104.245 46.624 105.571 46.0827 106.653 45C107.773 43.88 108.333 42.1067 108.333 39.68V24ZM142.998 24H149.942V50.6C149.942 53.2507 149.27 55.584 147.926 57.6C146.62 59.616 144.79 61.1653 142.438 62.248C140.086 63.368 137.454 63.928 134.542 63.928C131.294 63.928 128.345 63.2933 125.694 62.024C123.044 60.792 121.177 59.168 120.094 57.152L126.03 53.736C126.59 54.8187 127.636 55.7147 129.166 56.424C130.697 57.1707 132.545 57.544 134.71 57.544C137.1 57.544 139.078 56.8907 140.646 55.584C142.214 54.3147 142.998 52.6533 142.998 50.6V49.312C141.729 50.432 140.31 51.2907 138.742 51.888C137.174 52.4853 135.55 52.784 133.87 52.784C131.033 52.784 128.55 52.1493 126.422 50.88C124.294 49.6107 122.652 47.856 121.494 45.616C120.374 43.376 119.814 40.856 119.814 38.056C119.814 35.256 120.374 32.736 121.494 30.496C122.652 28.256 124.294 26.5013 126.422 25.232C128.55 23.9253 131.033 23.272 133.87 23.272C135.55 23.272 137.156 23.5893 138.686 24.224C140.254 24.8213 141.692 25.6613 142.998 26.744V24ZM134.766 46.12C136.297 46.12 137.678 45.784 138.91 45.112C140.18 44.4027 141.169 43.432 141.878 42.2C142.625 40.968 142.998 39.568 142.998 38C142.998 35.648 142.196 33.7253 140.59 32.232C139.022 30.7387 137.081 29.992 134.766 29.992C132.414 29.992 130.473 30.7573 128.942 32.288C127.449 33.7813 126.702 35.704 126.702 38.056C126.702 40.408 127.449 42.3493 128.942 43.88C130.473 45.3733 132.414 46.12 134.766 46.12ZM182.284 52H175.396V35.424C175.396 33.3333 174.799 31.84 173.604 30.944C172.447 30.0107 171.065 29.544 169.46 29.544C168.191 29.544 167.033 29.936 165.988 30.72C164.98 31.504 164.327 32.7547 164.028 34.472V52H157.084V12.8H164.028V26.352C164.961 25.456 166.025 24.7467 167.22 24.224C168.452 23.7013 169.759 23.44 171.14 23.44C172.783 23.44 174.444 23.7947 176.124 24.504C177.804 25.176 179.241 26.3893 180.436 28.144C181.668 29.8987 182.284 32.2693 182.284 35.256V52ZM197.124 42.424C197.124 43.6933 197.422 44.5707 198.02 45.056C198.617 45.5413 199.569 45.784 200.876 45.784C201.66 45.784 202.518 45.728 203.452 45.616V52C201.697 52.1867 200.241 52.28 199.084 52.28C196.097 52.28 193.857 51.608 192.364 50.264C190.908 48.8827 190.18 46.4187 190.18 42.872V30.216H184.916V24H190.18V17.112L197.124 14.76V24H203.34V30.216H197.124V42.424ZM214.155 31.84C214.155 32.624 214.585 33.2213 215.443 33.632C216.339 34.0053 217.739 34.3973 219.643 34.808C221.809 35.256 223.619 35.76 225.075 36.32C226.531 36.88 227.782 37.776 228.827 39.008C229.91 40.2027 230.451 41.8267 230.451 43.88C230.451 45.7093 229.891 47.296 228.771 48.64C227.689 49.984 226.233 51.0107 224.403 51.72C222.574 52.392 220.577 52.728 218.411 52.728C215.462 52.728 212.923 52.168 210.795 51.048C208.705 49.928 207.155 48.3227 206.147 46.232L211.859 43.264C212.867 45.84 215.051 47.128 218.411 47.128C219.867 47.128 221.118 46.848 222.163 46.288C223.209 45.728 223.731 44.9253 223.731 43.88C223.731 42.984 223.246 42.3307 222.275 41.92C221.342 41.472 219.811 40.9867 217.683 40.464C215.481 39.9413 213.689 39.4187 212.307 38.896C210.926 38.3733 209.731 37.5707 208.723 36.488C207.715 35.368 207.211 33.8933 207.211 32.064C207.211 30.272 207.715 28.7227 208.723 27.416C209.731 26.072 211.094 25.0453 212.811 24.336C214.529 23.6267 216.414 23.272 218.467 23.272C220.894 23.272 223.059 23.776 224.963 24.784C226.905 25.792 228.398 27.2293 229.443 29.096L223.787 31.952C222.817 29.8613 221.043 28.816 218.467 28.816C217.161 28.816 216.115 29.096 215.331 29.656C214.547 30.1787 214.155 30.9067 214.155 31.84ZM263.377 52.784C260.726 52.784 258.262 52.1307 255.985 50.824C253.745 49.48 251.953 47.688 250.609 45.448C249.302 43.1707 248.649 40.7067 248.649 38.056C248.649 35.4053 249.302 32.96 250.609 30.72C251.953 28.4427 253.745 26.6507 255.985 25.344C258.262 24 260.726 23.328 263.377 23.328C266.027 23.328 268.473 24 270.713 25.344C272.99 26.6507 274.782 28.4427 276.089 30.72C277.433 32.96 278.105 35.4053 278.105 38.056C278.105 40.7067 277.433 43.1707 276.089 45.448C274.782 47.688 272.99 49.48 270.713 50.824C268.473 52.1307 266.027 52.784 263.377 52.784ZM263.321 45.84C264.739 45.84 266.046 45.504 267.241 44.832C268.435 44.1227 269.387 43.1707 270.097 41.976C270.806 40.7813 271.161 39.4747 271.161 38.056C271.161 36.6373 270.806 35.3307 270.097 34.136C269.387 32.9413 268.435 31.9893 267.241 31.28C266.046 30.5707 264.739 30.216 263.321 30.216C261.902 30.216 260.595 30.5707 259.401 31.28C258.206 31.9893 257.254 32.9413 256.545 34.136C255.873 35.3307 255.537 36.6373 255.537 38.056C255.537 39.4747 255.873 40.7813 256.545 41.976C257.254 43.1707 258.206 44.1227 259.401 44.832C260.595 45.504 261.902 45.84 263.321 45.84ZM300.177 24H307.121V52H300.177V49.648C299.169 50.5813 298.049 51.328 296.817 51.888C295.585 52.448 294.278 52.728 292.897 52.728C291.254 52.728 289.574 52.392 287.857 51.72C286.177 51.0107 284.721 49.76 283.489 47.968C282.294 46.176 281.697 43.768 281.697 40.744V24H288.641V40.744C288.641 42.8347 289.22 44.3467 290.377 45.28C291.572 46.176 292.953 46.624 294.521 46.624C296.089 46.624 297.414 46.0827 298.497 45C299.617 43.88 300.177 42.1067 300.177 39.68V24ZM322.631 42.424C322.631 43.6933 322.93 44.5707 323.527 45.056C324.125 45.5413 325.077 45.784 326.383 45.784C327.167 45.784 328.026 45.728 328.959 45.616V52C327.205 52.1867 325.749 52.28 324.591 52.28C321.605 52.28 319.365 51.608 317.871 50.264C316.415 48.8827 315.687 46.4187 315.687 42.872V30.216H310.423V24H315.687V17.112L322.631 14.76V24H328.847V30.216H322.631V42.424ZM362.525 52.784C359.875 52.784 357.411 52.1307 355.133 50.824C352.893 49.48 351.101 47.688 349.757 45.448C348.451 43.1707 347.797 40.7067 347.797 38.056C347.797 35.4053 348.451 32.96 349.757 30.72C351.101 28.4427 352.893 26.6507 355.133 25.344C357.411 24 359.875 23.328 362.525 23.328C365.176 23.328 367.621 24 369.861 25.344C372.139 26.6507 373.931 28.4427 375.237 30.72C376.581 32.96 377.253 35.4053 377.253 38.056C377.253 40.7067 376.581 43.1707 375.237 45.448C373.931 47.688 372.139 49.48 369.861 50.824C367.621 52.1307 365.176 52.784 362.525 52.784ZM362.469 45.84C363.888 45.84 365.195 45.504 366.389 44.832C367.584 44.1227 368.536 43.1707 369.245 41.976C369.955 40.7813 370.309 39.4747 370.309 38.056C370.309 36.6373 369.955 35.3307 369.245 34.136C368.536 32.9413 367.584 31.9893 366.389 31.28C365.195 30.5707 363.888 30.216 362.469 30.216C361.051 30.216 359.744 30.5707 358.549 31.28C357.355 31.9893 356.403 32.9413 355.693 34.136C355.021 35.3307 354.685 36.6373 354.685 38.056C354.685 39.4747 355.021 40.7813 355.693 41.976C356.403 43.1707 357.355 44.1227 358.549 44.832C359.744 45.504 361.051 45.84 362.469 45.84ZM395.91 23.272C397.552 23.272 399.214 23.6267 400.894 24.336C402.611 25.008 404.067 26.24 405.262 28.032C406.494 29.824 407.11 32.232 407.11 35.256V52H400.166V35.256C400.166 33.1653 399.568 31.672 398.374 30.776C397.216 29.8427 395.854 29.376 394.286 29.376C392.718 29.376 391.374 29.936 390.254 31.056C389.171 32.1387 388.63 33.8933 388.63 36.32V52H381.686V24H388.63V26.352C389.638 25.4187 390.758 24.672 391.99 24.112C393.222 23.552 394.528 23.272 395.91 23.272ZM437.803 42.424C437.803 43.6933 438.102 44.5707 438.699 45.056C439.297 45.5413 440.249 45.784 441.555 45.784C442.339 45.784 443.198 45.728 444.131 45.616V52C442.377 52.1867 440.921 52.28 439.763 52.28C436.777 52.28 434.537 51.608 433.043 50.264C431.587 48.8827 430.859 46.4187 430.859 42.872V30.216H425.595V24H430.859V17.112L437.803 14.76V24H444.019V30.216H437.803V42.424ZM474.261 52H467.373V35.424C467.373 33.3333 466.775 31.84 465.581 30.944C464.423 30.0107 463.042 29.544 461.437 29.544C460.167 29.544 459.01 29.936 457.965 30.72C456.957 31.504 456.303 32.7547 456.005 34.472V52H449.061V12.8H456.005V26.352C456.938 25.456 458.002 24.7467 459.197 24.224C460.429 23.7013 461.735 23.44 463.117 23.44C464.759 23.44 466.421 23.7947 468.101 24.504C469.781 25.176 471.218 26.3893 472.413 28.144C473.645 29.8987 474.261 32.2693 474.261 35.256V52ZM492.682 23.272C495.37 23.272 497.778 23.944 499.906 25.288C502.071 26.5947 503.751 28.368 504.946 30.608C506.14 32.848 506.738 35.3307 506.738 38.056C506.738 38.952 506.663 39.7733 506.514 40.52H484.898C485.458 42.4987 486.447 44.048 487.866 45.168C489.284 46.2507 491.095 46.792 493.298 46.792C494.642 46.792 495.93 46.4933 497.162 45.896C498.431 45.2987 499.383 44.5333 500.018 43.6L505.338 46.736C504.031 48.6773 502.332 50.1707 500.242 51.216C498.188 52.224 495.818 52.728 493.13 52.728C490.143 52.728 487.492 52.0933 485.178 50.824C482.863 49.5547 481.071 47.8 479.802 45.56C478.57 43.32 477.954 40.8 477.954 38C477.954 35.2373 478.57 32.736 479.802 30.496C481.071 28.256 482.826 26.5013 485.066 25.232C487.306 23.9253 489.844 23.272 492.682 23.272ZM500.242 35.088C499.943 33.296 499.103 31.896 497.722 30.888C496.378 29.8427 494.679 29.32 492.626 29.32C491.207 29.32 489.9 29.5813 488.706 30.104C487.548 30.6267 486.615 31.336 485.906 32.232C485.196 33.128 484.823 34.08 484.786 35.088H500.242ZM553.543 40.968L558.751 24H566.031L556.959 52H550.071L544.807 35.368L539.543 52H532.767L523.919 24H531.143L536.183 40.856L541.111 24H548.503L553.543 40.968ZM581.713 52.784C579.062 52.784 576.598 52.1307 574.321 50.824C572.081 49.48 570.289 47.688 568.945 45.448C567.638 43.1707 566.985 40.7067 566.985 38.056C566.985 35.4053 567.638 32.96 568.945 30.72C570.289 28.4427 572.081 26.6507 574.321 25.344C576.598 24 579.062 23.328 581.713 23.328C584.363 23.328 586.809 24 589.049 25.344C591.326 26.6507 593.118 28.4427 594.425 30.72C595.769 32.96 596.441 35.4053 596.441 38.056C596.441 40.7067 595.769 43.1707 594.425 45.448C593.118 47.688 591.326 49.48 589.049 50.824C586.809 52.1307 584.363 52.784 581.713 52.784ZM581.657 45.84C583.075 45.84 584.382 45.504 585.577 44.832C586.771 44.1227 587.723 43.1707 588.433 41.976C589.142 40.7813 589.497 39.4747 589.497 38.056C589.497 36.6373 589.142 35.3307 588.433 34.136C587.723 32.9413 586.771 31.9893 585.577 31.28C584.382 30.5707 583.075 30.216 581.657 30.216C580.238 30.216 578.931 30.5707 577.737 31.28C576.542 31.9893 575.59 32.9413 574.881 34.136C574.209 35.3307 573.873 36.6373 573.873 38.056C573.873 39.4747 574.209 40.7813 574.881 41.976C575.59 43.1707 576.542 44.1227 577.737 44.832C578.931 45.504 580.238 45.84 581.657 45.84ZM617.505 23.44L617.001 29.992C616.777 29.9173 616.385 29.88 615.825 29.88C613.51 29.88 611.588 30.552 610.057 31.896C608.564 33.24 607.817 35.0693 607.817 37.384V52H600.873V24H607.817V28.704C608.452 27.2107 609.534 25.96 611.065 24.952C612.596 23.944 614.444 23.44 616.609 23.44H617.505ZM628.872 44.104C628.872 44.7013 629.021 45.1307 629.32 45.392C629.618 45.6533 630.085 45.784 630.72 45.784C631.205 45.784 631.784 45.728 632.456 45.616V52C631.074 52.224 629.786 52.336 628.592 52.336C626.426 52.336 624.765 51.776 623.608 50.656C622.488 49.4987 621.928 47.464 621.928 44.552V12.8H628.872V44.104ZM658.535 12.8H665.479V52H658.535V49.312C657.265 50.432 655.847 51.2907 654.279 51.888C652.711 52.4853 651.087 52.784 649.407 52.784C646.569 52.784 644.087 52.1493 641.959 50.88C639.831 49.6107 638.188 47.856 637.031 45.616C635.911 43.376 635.351 40.856 635.351 38.056C635.351 35.256 635.911 32.736 637.031 30.496C638.188 28.256 639.831 26.5013 641.959 25.232C644.087 23.9253 646.569 23.272 649.407 23.272C651.087 23.272 652.692 23.5893 654.223 24.224C655.791 24.8213 657.228 25.6613 658.535 26.744V12.8ZM650.303 46.12C651.833 46.12 653.215 45.784 654.447 45.112C655.716 44.4027 656.705 43.432 657.415 42.2C658.161 40.968 658.535 39.568 658.535 38C658.535 35.648 657.732 33.7253 656.127 32.232C654.559 30.7387 652.617 29.992 650.303 29.992C647.951 29.992 646.009 30.7573 644.479 32.288C642.985 33.7813 642.239 35.704 642.239 38.056C642.239 40.408 642.985 42.3493 644.479 43.88C646.009 45.3733 647.951 46.12 650.303 46.12Z" fill="#FF5E14"/>
<path d="M13.272 41.424C13.272 42.6933 13.5707 43.5707 14.168 44.056C14.7653 44.5413 15.7173 44.784 17.024 44.784C17.808 44.784 18.6667 44.728 19.6 44.616V51C17.8453 51.1867 16.3893 51.28 15.232 51.28C12.2453 51.28 10.0053 50.608 8.512 49.264C7.056 47.8827 6.328 45.4187 6.328 41.872V29.216H1.064V23H6.328V16.112L13.272 13.76V23H19.488V29.216H13.272V41.424ZM49.7293 51H42.8413V34.424C42.8413 32.3333 42.244 30.84 41.0493 29.944C39.892 29.0107 38.5106 28.544 36.9053 28.544C35.636 28.544 34.4786 28.936 33.4333 29.72C32.4253 30.504 31.772 31.7547 31.4733 33.472V51H24.5293V11.8H31.4733V25.352C32.4066 24.456 33.4706 23.7467 34.6653 23.224C35.8973 22.7013 37.204 22.44 38.5853 22.44C40.228 22.44 41.8893 22.7947 43.5693 23.504C45.2493 24.176 46.6866 25.3893 47.8813 27.144C49.1133 28.8987 49.7293 31.2693 49.7293 34.256V51ZM68.5331 51.784C65.8824 51.784 63.4184 51.1307 61.1411 49.824C58.9011 48.48 57.1091 46.688 55.7651 44.448C54.4584 42.1707 53.8051 39.7067 53.8051 37.056C53.8051 34.4053 54.4584 31.96 55.7651 29.72C57.1091 27.4427 58.9011 25.6507 61.1411 24.344C63.4184 23 65.8824 22.328 68.5331 22.328C71.1837 22.328 73.6291 23 75.8691 24.344C78.1464 25.6507 79.9384 27.4427 81.2451 29.72C82.5891 31.96 83.2611 34.4053 83.2611 37.056C83.2611 39.7067 82.5891 42.1707 81.2451 44.448C79.9384 46.688 78.1464 48.48 75.8691 49.824C73.6291 51.1307 71.1837 51.784 68.5331 51.784ZM68.4771 44.84C69.8957 44.84 71.2024 44.504 72.3971 43.832C73.5917 43.1227 74.5437 42.1707 75.2531 40.976C75.9624 39.7813 76.3171 38.4747 76.3171 37.056C76.3171 35.6373 75.9624 34.3307 75.2531 33.136C74.5437 31.9413 73.5917 30.9893 72.3971 30.28C71.2024 29.5707 69.8957 29.216 68.4771 29.216C67.0584 29.216 65.7517 29.5707 64.5571 30.28C63.3624 30.9893 62.4104 31.9413 61.7011 33.136C61.0291 34.3307 60.6931 35.6373 60.6931 37.056C60.6931 38.4747 61.0291 39.7813 61.7011 40.976C62.4104 42.1707 63.3624 43.1227 64.5571 43.832C65.7517 44.504 67.0584 44.84 68.4771 44.84ZM105.333 23H112.277V51H105.333V48.648C104.325 49.5813 103.205 50.328 101.973 50.888C100.741 51.448 99.4347 51.728 98.0534 51.728C96.4107 51.728 94.7307 51.392 93.0134 50.72C91.3334 50.0107 89.8774 48.76 88.6454 46.968C87.4507 45.176 86.8534 42.768 86.8534 39.744V23H93.7974V39.744C93.7974 41.8347 94.376 43.3467 95.5334 44.28C96.728 45.176 98.1094 45.624 99.6774 45.624C101.245 45.624 102.571 45.0827 103.653 44C104.773 42.88 105.333 41.1067 105.333 38.68V23ZM139.998 23H146.942V49.6C146.942 52.2507 146.27 54.584 144.926 56.6C143.62 58.616 141.79 60.1653 139.438 61.248C137.086 62.368 134.454 62.928 131.542 62.928C128.294 62.928 125.345 62.2933 122.694 61.024C120.044 59.792 118.177 58.168 117.094 56.152L123.03 52.736C123.59 53.8187 124.636 54.7147 126.166 55.424C127.697 56.1707 129.545 56.544 131.71 56.544C134.1 56.544 136.078 55.8907 137.646 54.584C139.214 53.3147 139.998 51.6533 139.998 49.6V48.312C138.729 49.432 137.31 50.2907 135.742 50.888C134.174 51.4853 132.55 51.784 130.87 51.784C128.033 51.784 125.55 51.1493 123.422 49.88C121.294 48.6107 119.652 46.856 118.494 44.616C117.374 42.376 116.814 39.856 116.814 37.056C116.814 34.256 117.374 31.736 118.494 29.496C119.652 27.256 121.294 25.5013 123.422 24.232C125.55 22.9253 128.033 22.272 130.87 22.272C132.55 22.272 134.156 22.5893 135.686 23.224C137.254 23.8213 138.692 24.6613 139.998 25.744V23ZM131.766 45.12C133.297 45.12 134.678 44.784 135.91 44.112C137.18 43.4027 138.169 42.432 138.878 41.2C139.625 39.968 139.998 38.568 139.998 37C139.998 34.648 139.196 32.7253 137.59 31.232C136.022 29.7387 134.081 28.992 131.766 28.992C129.414 28.992 127.473 29.7573 125.942 31.288C124.449 32.7813 123.702 34.704 123.702 37.056C123.702 39.408 124.449 41.3493 125.942 42.88C127.473 44.3733 129.414 45.12 131.766 45.12ZM179.284 51H172.396V34.424C172.396 32.3333 171.799 30.84 170.604 29.944C169.447 29.0107 168.065 28.544 166.46 28.544C165.191 28.544 164.033 28.936 162.988 29.72C161.98 30.504 161.327 31.7547 161.028 33.472V51H154.084V11.8H161.028V25.352C161.961 24.456 163.025 23.7467 164.22 23.224C165.452 22.7013 166.759 22.44 168.14 22.44C169.783 22.44 171.444 22.7947 173.124 23.504C174.804 24.176 176.241 25.3893 177.436 27.144C178.668 28.8987 179.284 31.2693 179.284 34.256V51ZM194.124 41.424C194.124 42.6933 194.422 43.5707 195.02 44.056C195.617 44.5413 196.569 44.784 197.876 44.784C198.66 44.784 199.518 44.728 200.452 44.616V51C198.697 51.1867 197.241 51.28 196.084 51.28C193.097 51.28 190.857 50.608 189.364 49.264C187.908 47.8827 187.18 45.4187 187.18 41.872V29.216H181.916V23H187.18V16.112L194.124 13.76V23H200.34V29.216H194.124V41.424ZM211.155 30.84C211.155 31.624 211.585 32.2213 212.443 32.632C213.339 33.0053 214.739 33.3973 216.643 33.808C218.809 34.256 220.619 34.76 222.075 35.32C223.531 35.88 224.782 36.776 225.827 38.008C226.91 39.2027 227.451 40.8267 227.451 42.88C227.451 44.7093 226.891 46.296 225.771 47.64C224.689 48.984 223.233 50.0107 221.403 50.72C219.574 51.392 217.577 51.728 215.411 51.728C212.462 51.728 209.923 51.168 207.795 50.048C205.705 48.928 204.155 47.3227 203.147 45.232L208.859 42.264C209.867 44.84 212.051 46.128 215.411 46.128C216.867 46.128 218.118 45.848 219.163 45.288C220.209 44.728 220.731 43.9253 220.731 42.88C220.731 41.984 220.246 41.3307 219.275 40.92C218.342 40.472 216.811 39.9867 214.683 39.464C212.481 38.9413 210.689 38.4187 209.307 37.896C207.926 37.3733 206.731 36.5707 205.723 35.488C204.715 34.368 204.211 32.8933 204.211 31.064C204.211 29.272 204.715 27.7227 205.723 26.416C206.731 25.072 208.094 24.0453 209.811 23.336C211.529 22.6267 213.414 22.272 215.467 22.272C217.894 22.272 220.059 22.776 221.963 23.784C223.905 24.792 225.398 26.2293 226.443 28.096L220.787 30.952C219.817 28.8613 218.043 27.816 215.467 27.816C214.161 27.816 213.115 28.096 212.331 28.656C211.547 29.1787 211.155 29.9067 211.155 30.84ZM260.377 51.784C257.726 51.784 255.262 51.1307 252.985 49.824C250.745 48.48 248.953 46.688 247.609 44.448C246.302 42.1707 245.649 39.7067 245.649 37.056C245.649 34.4053 246.302 31.96 247.609 29.72C248.953 27.4427 250.745 25.6507 252.985 24.344C255.262 23 257.726 22.328 260.377 22.328C263.027 22.328 265.473 23 267.713 24.344C269.99 25.6507 271.782 27.4427 273.089 29.72C274.433 31.96 275.105 34.4053 275.105 37.056C275.105 39.7067 274.433 42.1707 273.089 44.448C271.782 46.688 269.99 48.48 267.713 49.824C265.473 51.1307 263.027 51.784 260.377 51.784ZM260.321 44.84C261.739 44.84 263.046 44.504 264.241 43.832C265.435 43.1227 266.387 42.1707 267.097 40.976C267.806 39.7813 268.161 38.4747 268.161 37.056C268.161 35.6373 267.806 34.3307 267.097 33.136C266.387 31.9413 265.435 30.9893 264.241 30.28C263.046 29.5707 261.739 29.216 260.321 29.216C258.902 29.216 257.595 29.5707 256.401 30.28C255.206 30.9893 254.254 31.9413 253.545 33.136C252.873 34.3307 252.537 35.6373 252.537 37.056C252.537 38.4747 252.873 39.7813 253.545 40.976C254.254 42.1707 255.206 43.1227 256.401 43.832C257.595 44.504 258.902 44.84 260.321 44.84ZM297.177 23H304.121V51H297.177V48.648C296.169 49.5813 295.049 50.328 293.817 50.888C292.585 51.448 291.278 51.728 289.897 51.728C288.254 51.728 286.574 51.392 284.857 50.72C283.177 50.0107 281.721 48.76 280.489 46.968C279.294 45.176 278.697 42.768 278.697 39.744V23H285.641V39.744C285.641 41.8347 286.22 43.3467 287.377 44.28C288.572 45.176 289.953 45.624 291.521 45.624C293.089 45.624 294.414 45.0827 295.497 44C296.617 42.88 297.177 41.1067 297.177 38.68V23ZM319.631 41.424C319.631 42.6933 319.93 43.5707 320.527 44.056C321.125 44.5413 322.077 44.784 323.383 44.784C324.167 44.784 325.026 44.728 325.959 44.616V51C324.205 51.1867 322.749 51.28 321.591 51.28C318.605 51.28 316.365 50.608 314.871 49.264C313.415 47.8827 312.687 45.4187 312.687 41.872V29.216H307.423V23H312.687V16.112L319.631 13.76V23H325.847V29.216H319.631V41.424ZM359.525 51.784C356.875 51.784 354.411 51.1307 352.133 49.824C349.893 48.48 348.101 46.688 346.757 44.448C345.451 42.1707 344.797 39.7067 344.797 37.056C344.797 34.4053 345.451 31.96 346.757 29.72C348.101 27.4427 349.893 25.6507 352.133 24.344C354.411 23 356.875 22.328 359.525 22.328C362.176 22.328 364.621 23 366.861 24.344C369.139 25.6507 370.931 27.4427 372.237 29.72C373.581 31.96 374.253 34.4053 374.253 37.056C374.253 39.7067 373.581 42.1707 372.237 44.448C370.931 46.688 369.139 48.48 366.861 49.824C364.621 51.1307 362.176 51.784 359.525 51.784ZM359.469 44.84C360.888 44.84 362.195 44.504 363.389 43.832C364.584 43.1227 365.536 42.1707 366.245 40.976C366.955 39.7813 367.309 38.4747 367.309 37.056C367.309 35.6373 366.955 34.3307 366.245 33.136C365.536 31.9413 364.584 30.9893 363.389 30.28C362.195 29.5707 360.888 29.216 359.469 29.216C358.051 29.216 356.744 29.5707 355.549 30.28C354.355 30.9893 353.403 31.9413 352.693 33.136C352.021 34.3307 351.685 35.6373 351.685 37.056C351.685 38.4747 352.021 39.7813 352.693 40.976C353.403 42.1707 354.355 43.1227 355.549 43.832C356.744 44.504 358.051 44.84 359.469 44.84ZM392.91 22.272C394.552 22.272 396.214 22.6267 397.894 23.336C399.611 24.008 401.067 25.24 402.262 27.032C403.494 28.824 404.11 31.232 404.11 34.256V51H397.166V34.256C397.166 32.1653 396.568 30.672 395.374 29.776C394.216 28.8427 392.854 28.376 391.286 28.376C389.718 28.376 388.374 28.936 387.254 30.056C386.171 31.1387 385.63 32.8933 385.63 35.32V51H378.686V23H385.63V25.352C386.638 24.4187 387.758 23.672 388.99 23.112C390.222 22.552 391.528 22.272 392.91 22.272ZM434.803 41.424C434.803 42.6933 435.102 43.5707 435.699 44.056C436.297 44.5413 437.249 44.784 438.555 44.784C439.339 44.784 440.198 44.728 441.131 44.616V51C439.377 51.1867 437.921 51.28 436.763 51.28C433.777 51.28 431.537 50.608 430.043 49.264C428.587 47.8827 427.859 45.4187 427.859 41.872V29.216H422.595V23H427.859V16.112L434.803 13.76V23H441.019V29.216H434.803V41.424ZM471.261 51H464.373V34.424C464.373 32.3333 463.775 30.84 462.581 29.944C461.423 29.0107 460.042 28.544 458.437 28.544C457.167 28.544 456.01 28.936 454.965 29.72C453.957 30.504 453.303 31.7547 453.005 33.472V51H446.061V11.8H453.005V25.352C453.938 24.456 455.002 23.7467 456.197 23.224C457.429 22.7013 458.735 22.44 460.117 22.44C461.759 22.44 463.421 22.7947 465.101 23.504C466.781 24.176 468.218 25.3893 469.413 27.144C470.645 28.8987 471.261 31.2693 471.261 34.256V51ZM489.682 22.272C492.37 22.272 494.778 22.944 496.906 24.288C499.071 25.5947 500.751 27.368 501.946 29.608C503.14 31.848 503.738 34.3307 503.738 37.056C503.738 37.952 503.663 38.7733 503.514 39.52H481.898C482.458 41.4987 483.447 43.048 484.866 44.168C486.284 45.2507 488.095 45.792 490.298 45.792C491.642 45.792 492.93 45.4933 494.162 44.896C495.431 44.2987 496.383 43.5333 497.018 42.6L502.338 45.736C501.031 47.6773 499.332 49.1707 497.242 50.216C495.188 51.224 492.818 51.728 490.13 51.728C487.143 51.728 484.492 51.0933 482.178 49.824C479.863 48.5547 478.071 46.8 476.802 44.56C475.57 42.32 474.954 39.8 474.954 37C474.954 34.2373 475.57 31.736 476.802 29.496C478.071 27.256 479.826 25.5013 482.066 24.232C484.306 22.9253 486.844 22.272 489.682 22.272ZM497.242 34.088C496.943 32.296 496.103 30.896 494.722 29.888C493.378 28.8427 491.679 28.32 489.626 28.32C488.207 28.32 486.9 28.5813 485.706 29.104C484.548 29.6267 483.615 30.336 482.906 31.232C482.196 32.128 481.823 33.08 481.786 34.088H497.242ZM550.543 39.968L555.751 23H563.031L553.959 51H547.071L541.807 34.368L536.543 51H529.767L520.919 23H528.143L533.183 39.856L538.111 23H545.503L550.543 39.968ZM578.713 51.784C576.062 51.784 573.598 51.1307 571.321 49.824C569.081 48.48 567.289 46.688 565.945 44.448C564.638 42.1707 563.985 39.7067 563.985 37.056C563.985 34.4053 564.638 31.96 565.945 29.72C567.289 27.4427 569.081 25.6507 571.321 24.344C573.598 23 576.062 22.328 578.713 22.328C581.363 22.328 583.809 23 586.049 24.344C588.326 25.6507 590.118 27.4427 591.425 29.72C592.769 31.96 593.441 34.4053 593.441 37.056C593.441 39.7067 592.769 42.1707 591.425 44.448C590.118 46.688 588.326 48.48 586.049 49.824C583.809 51.1307 581.363 51.784 578.713 51.784ZM578.657 44.84C580.075 44.84 581.382 44.504 582.577 43.832C583.771 43.1227 584.723 42.1707 585.433 40.976C586.142 39.7813 586.497 38.4747 586.497 37.056C586.497 35.6373 586.142 34.3307 585.433 33.136C584.723 31.9413 583.771 30.9893 582.577 30.28C581.382 29.5707 580.075 29.216 578.657 29.216C577.238 29.216 575.931 29.5707 574.737 30.28C573.542 30.9893 572.59 31.9413 571.881 33.136C571.209 34.3307 570.873 35.6373 570.873 37.056C570.873 38.4747 571.209 39.7813 571.881 40.976C572.59 42.1707 573.542 43.1227 574.737 43.832C575.931 44.504 577.238 44.84 578.657 44.84ZM614.505 22.44L614.001 28.992C613.777 28.9173 613.385 28.88 612.825 28.88C610.51 28.88 608.588 29.552 607.057 30.896C605.564 32.24 604.817 34.0693 604.817 36.384V51H597.873V23H604.817V27.704C605.452 26.2107 606.534 24.96 608.065 23.952C609.596 22.944 611.444 22.44 613.609 22.44H614.505ZM625.872 43.104C625.872 43.7013 626.021 44.1307 626.32 44.392C626.618 44.6533 627.085 44.784 627.72 44.784C628.205 44.784 628.784 44.728 629.456 44.616V51C628.074 51.224 626.786 51.336 625.592 51.336C623.426 51.336 621.765 50.776 620.608 49.656C619.488 48.4987 618.928 46.464 618.928 43.552V11.8H625.872V43.104ZM655.535 11.8H662.479V51H655.535V48.312C654.265 49.432 652.847 50.2907 651.279 50.888C649.711 51.4853 648.087 51.784 646.407 51.784C643.569 51.784 641.087 51.1493 638.959 49.88C636.831 48.6107 635.188 46.856 634.031 44.616C632.911 42.376 632.351 39.856 632.351 37.056C632.351 34.256 632.911 31.736 634.031 29.496C635.188 27.256 636.831 25.5013 638.959 24.232C641.087 22.9253 643.569 22.272 646.407 22.272C648.087 22.272 649.692 22.5893 651.223 23.224C652.791 23.8213 654.228 24.6613 655.535 25.744V11.8ZM647.303 45.12C648.833 45.12 650.215 44.784 651.447 44.112C652.716 43.4027 653.705 42.432 654.415 41.2C655.161 39.968 655.535 38.568 655.535 37C655.535 34.648 654.732 32.7253 653.127 31.232C651.559 29.7387 649.617 28.992 647.303 28.992C644.951 28.992 643.009 29.7573 641.479 31.288C639.985 32.7813 639.239 34.704 639.239 37.056C639.239 39.408 639.985 41.3493 641.479 42.88C643.009 44.3733 644.951 45.12 647.303 45.12Z" fill="white"/>
</svg>
